<svg xmlns="http://www.w3.org/2000/svg" width="271.08" height="111.876" viewBox="0 0 271.08 111.876">
  <g id="Group_3" data-name="Group 3" transform="translate(-322.156 -72)">
    <g id="Group_2" data-name="Group 2">
      <path id="Path_1" data-name="Path 1" d="M175.325,23.4h-8.1L160.6,3.732h-26.49L127.878,23.4h-8.147l23.963-70.144h7.581ZM158.2-3.655l-9.8-29.887a31.6,31.6,0,0,1-.959-4.7h-.174a28.9,28.9,0,0,1-1,4.7L136.548-3.655Zm81.284-43.094L214.84,23.4h-8.583L193.525,1.649a35.732,35.732,0,0,1-1-7.142h-.174a40.264,40.264,0,0,1-1.133,7.044L178.155,23.4h-8.5l-24.3-70.144h8.06L172.709,7.058a39.292,39.292,0,0,1,1.046,7.044h.218a46.047,46.047,0,0,1,1.351-7.044l13.811-53.807h7.015l13.245,54.2A44.057,44.057,0,0,1,210.44,14h.174c.116-1.7,1.508-3.946,2.176-6.75l18.766-54ZM336.461,23.4H278.538L250.916,3.732h-26.49L218.2,23.4h-8.147l23.963-70.144h7.581ZM248.519-3.655l-9.8-29.887a31.6,31.6,0,0,1-.958-4.7h-.174a28.891,28.891,0,0,1-1,4.7L226.866-3.655Z" transform="translate(255.258 132.722)" fill="#fff" stroke="#fff" stroke-linecap="round" stroke-width="1"/>
      <path id="Path_2" data-name="Path 2" d="M11.9,10.769H10.188l-1.4-6.16H3.2L1.89,10.769H-3.421L5.226-11.2h1.6ZM8.286,2.3,6.218-7.066a14.19,14.19,0,0,1-.2-1.471H5.979a12.938,12.938,0,0,1-.211,1.471L3.719,2.3Zm7.094,8.473H13.836V-11.2h1.544ZM26.636-8.874h-3.8V10.769H21.288V-8.874H17.493V-11.2h9.143ZM49.479-11.2,45.758,10.769h-1.81L41.237-5.289a16.336,16.336,0,0,1-.211-2.237h-.037a18.325,18.325,0,0,1-.239,2.206L38.021,10.769H36.229L32.37-11.2h1.7l2.8,16.855a17.937,17.937,0,0,1,.221,2.206h.046a20.811,20.811,0,0,1,.285-2.206L40.336-11.2h1.479L44.609,5.774a20.06,20.06,0,0,1,.221,2.053h.037a19.8,19.8,0,0,1,.248-2.115L47.807-11.2Zm3.5,21.973H51.437V-11.2H52.98Zm13.37,0H64.806V.748H57.988V10.769H56.444V-11.2h1.544v9.638h6.818V-11.2H66.35Zm5,0H69.805V-11.2h1.544Zm18.819,0H88.458l-1.4-6.16H81.475l-1.314,6.16H78.443L83.5-11.2h1.6ZM86.556,2.3,84.489-7.066a14.19,14.19,0,0,1-.2-1.471H84.25a12.939,12.939,0,0,1-.211,1.471L81.989,2.3Zm5.55,8.473V-11.2h3.749a3.167,3.167,0,0,1,2.711,1.394,6.083,6.083,0,0,1,1,3.631,8.019,8.019,0,0,1-.606,3.248A3.929,3.929,0,0,1,97.289-.968v.061A3.118,3.118,0,0,1,99.421.771a7.459,7.459,0,0,1,.8,3.685,7.847,7.847,0,0,1-1.213,4.566,3.612,3.612,0,0,1-3.06,1.747ZM93.65-8.874V-1.78h1.58A2.317,2.317,0,0,0,97.225-2.8a4.895,4.895,0,0,0,.726-2.873q0-3.2-2.527-3.2Zm0,9.408V8.44h2.1a2.424,2.424,0,0,0,2.109-1.073A5.067,5.067,0,0,0,98.6,4.426Q98.6.534,95.424.534Zm9.244,10.235V-11.2h3.639q6.965,0,6.965,10.71a15.238,15.238,0,0,1-1.934,8.175,5.878,5.878,0,0,1-5.178,3.088Zm1.544-19.644V8.44H106.4a4.515,4.515,0,0,0,4.034-2.314,12.426,12.426,0,0,0,1.443-6.558q0-8.443-5.385-8.443Zm18.635,19.644h-6.984V-11.2h6.689v2.329h-5.146v7.309h4.76V.748h-4.76V8.44h5.44Zm11.982,0h-1.838l-2.205-6.16q-.3-.858-.588-1.463a5.259,5.259,0,0,0-.583-.988A1.967,1.967,0,0,0,129.2,1.6a1.681,1.681,0,0,0-.776-.176h-1.268v9.347h-1.544V-11.2h3.933a3.556,3.556,0,0,1,1.594.36,3.471,3.471,0,0,1,1.268,1.1,5.616,5.616,0,0,1,.841,1.831,9.677,9.677,0,0,1,.3,2.567,9.994,9.994,0,0,1-.207,2.107,7.042,7.042,0,0,1-.588,1.708,4.866,4.866,0,0,1-.919,1.279,3.962,3.962,0,0,1-1.208.82V.626a2.926,2.926,0,0,1,.574.559,4.774,4.774,0,0,1,.464.743q.221.429.436.973t.482,1.264Zm-7.9-19.644V-.906h2.1a2.063,2.063,0,0,0,1.07-.291,2.624,2.624,0,0,0,.85-.835,4.39,4.39,0,0,0,.561-1.333,7.139,7.139,0,0,0,.2-1.77,4.777,4.777,0,0,0-.685-2.75,2.26,2.26,0,0,0-1.98-.988Zm19.159,19.644h-1.838l-2.205-6.16q-.3-.858-.588-1.463a5.257,5.257,0,0,0-.583-.988,1.967,1.967,0,0,0-.643-.559,1.681,1.681,0,0,0-.776-.176h-1.268v9.347h-1.544V-11.2H140.8a3.556,3.556,0,0,1,1.594.36,3.471,3.471,0,0,1,1.268,1.1,5.616,5.616,0,0,1,.841,1.831,9.677,9.677,0,0,1,.3,2.567,10,10,0,0,1-.207,2.107,7.042,7.042,0,0,1-.588,1.708,4.865,4.865,0,0,1-.919,1.279,3.962,3.962,0,0,1-1.208.82V.626a2.927,2.927,0,0,1,.574.559,4.775,4.775,0,0,1,.464.743q.221.429.436.973t.482,1.264Zm-7.9-19.644V-.906h2.1a2.063,2.063,0,0,0,1.071-.291,2.625,2.625,0,0,0,.85-.835,4.391,4.391,0,0,0,.561-1.333,7.139,7.139,0,0,0,.2-1.77,4.777,4.777,0,0,0-.685-2.75,2.26,2.26,0,0,0-1.98-.988Zm19.912,19.644h-1.709l-1.4-6.16h-5.587l-1.314,6.16H146.6L151.65-11.2h1.6ZM154.71,2.3l-2.068-9.362a14.187,14.187,0,0,1-.2-1.471H152.4a12.932,12.932,0,0,1-.211,1.471L150.143,2.3Zm15.456,8.473h-1.544V.748H161.8V10.769H160.26V-11.2H161.8v9.638h6.818V-11.2h1.544Zm16.889,0H185.52V-3.971q0-1.747.129-4.275h-.037a20.819,20.819,0,0,1-.4,2.13l-4.5,16.885h-.753L175.468-5.993a20.178,20.178,0,0,1-.4-2.252h-.037q.074,1.318.074,4.306v14.71h-1.489V-11.2h2.04L179.7,4.119q.469,1.762.606,2.635h.055q.4-1.808.634-2.7L185.125-11.2h1.93Zm13.664,0H199.01l-1.4-6.16h-5.587l-1.314,6.16h-1.718L194.048-11.2h1.6ZM197.107,2.3,195.04-7.066a14.2,14.2,0,0,1-.2-1.471H194.8a12.94,12.94,0,0,1-.211,1.471L192.541,2.3Zm16.172,8.473h-1.893L204.606-6.744a9.842,9.842,0,0,1-.423-1.379h-.055q.074.7.073,3.019V10.769h-1.544V-11.2h2l6.6,17.238q.413,1.073.533,1.471h.037q-.092-.95-.092-3.233V-11.2h1.544Zm10.439,0h-6.984V-11.2h6.689v2.329h-5.146v7.309h4.76V.748h-4.76V8.44h5.44Z" transform="translate(368 173.107)" fill="#fff"/>
      <path id="Path_4" data-name="Path 4" d="M60.43,10.714l-32.273-24.3v-3.455L80.43-45.259l-4,8.783L37.1-15.631v.234L62.43,2.99ZM95.809-58.816,62.59,39.087H56.314l33.137-97.9Z" transform="translate(294 144.789)" fill="red"/>
    </g>
    <circle id="Ellipse_1" data-name="Ellipse 1" cx="6.5" cy="6.5" r="6.5" transform="translate(396 97)" fill="#fff"/>
    <circle id="Ellipse_2" data-name="Ellipse 2" cx="6.5" cy="6.5" r="6.5" transform="translate(386 122)" fill="#fff"/>
    <ellipse id="Ellipse_4" data-name="Ellipse 4" cx="6.5" cy="7.5" rx="6.5" ry="7.5" transform="translate(486 97)" fill="#fff"/>
    <circle id="Ellipse_5" data-name="Ellipse 5" cx="6.5" cy="6.5" r="6.5" transform="translate(407 122)" fill="#fff"/>
    <circle id="Ellipse_6" data-name="Ellipse 6" cx="6.5" cy="6.5" r="6.5" transform="translate(496 122)" fill="#fff"/>
    <circle id="Ellipse_7" data-name="Ellipse 7" cx="6.5" cy="6.5" r="6.5" transform="translate(477 122)" fill="#fff"/>
    <ellipse id="Ellipse_8" data-name="Ellipse 8" cx="10.5" cy="11" rx="10.5" ry="11" transform="translate(445 88)"/>
    <ellipse id="Ellipse_9" data-name="Ellipse 9" cx="10.5" cy="11" rx="10.5" ry="11" transform="translate(490 72)"/>
    <ellipse id="Ellipse_13" data-name="Ellipse 13" cx="10.5" cy="11" rx="10.5" ry="11" transform="translate(399 75)"/>
    <circle id="Ellipse_10" data-name="Ellipse 10" cx="9.5" cy="9.5" r="9.5" transform="translate(511 93)"/>
    <circle id="Ellipse_11" data-name="Ellipse 11" cx="12" cy="12" r="12" transform="translate(525 110)"/>
    <ellipse id="Ellipse_12" data-name="Ellipse 12" cx="17" cy="10" rx="17" ry="10" transform="translate(553 125)"/>
    <ellipse id="Ellipse_14" data-name="Ellipse 14" cx="10.5" cy="11" rx="10.5" ry="11" transform="translate(437 125)"/>
    <circle id="Ellipse_15" data-name="Ellipse 15" cx="6.5" cy="6.5" r="6.5" transform="translate(514 96)" fill="#fff"/>
    <ellipse id="Ellipse_16" data-name="Ellipse 16" cx="9.5" cy="10" rx="9.5" ry="10" transform="translate(527 112)" fill="#fff"/>
    <circle id="Ellipse_18" data-name="Ellipse 18" cx="4" cy="4" r="4" transform="translate(553 104)" fill="#fff"/>
    <circle id="Ellipse_19" data-name="Ellipse 19" cx="8" cy="8" r="8" transform="translate(575 83)" fill="#fff"/>
    <circle id="Ellipse_20" data-name="Ellipse 20" cx="6.5" cy="6.5" r="6.5" transform="translate(536 83)" fill="#fff"/>
    <ellipse id="Ellipse_21" data-name="Ellipse 21" cx="14" cy="9" rx="14" ry="9" transform="translate(556 125)" fill="#fff"/>
    <ellipse id="Ellipse_22" data-name="Ellipse 22" cx="4" cy="10" rx="4" ry="10" transform="matrix(0.995, -0.105, 0.105, 0.995, 567.604, 100.44)" fill="#fff"/>
    <circle id="Ellipse_23" data-name="Ellipse 23" cx="2.5" cy="2.5" r="2.5" transform="translate(561 89)" fill="#fff"/>
    <circle id="Ellipse_24" data-name="Ellipse 24" cx="3.5" cy="3.5" r="3.5" transform="translate(581 103)" fill="#fff"/>
  </g>
</svg>
